<svg width="100" height="100" viewBox="0 0 100 100" fill="none" xmlns="http://www.w3.org/2000/svg">
<path d="M46.5935 6.07547C37.2628 7.11221 29.1895 10.796 22.7925 16.9723C13.1089 26.3251 9.09426 39.4278 11.8516 52.8172C14.6309 66.2949 24.3807 77.2138 37.5496 81.5814C46.3729 84.5151 56.3433 84.1622 65.2549 80.6108C65.5196 80.5005 66.402 81.824 69.2916 86.6327C71.321 90.0297 73.2842 93.0738 73.6371 93.4267C74.2327 94.0002 74.4533 94.0664 75.7768 94.0664H77.2547L80.5635 91.9929C82.3943 90.8679 84.0046 89.7871 84.159 89.5886C84.7325 88.8386 84.4678 88.1548 83.0119 86.6768C81.2252 84.8681 79.6811 82.7063 77.0121 78.2726L74.9165 74.7874L75.865 73.9491C84.909 66.0743 89.85 53.9642 88.8795 42.0748C88.2618 34.7293 86.2766 28.95 82.262 22.9281C80.2105 19.8399 75.865 15.3841 72.7327 13.1562C68.4534 10.1342 62.3653 7.57544 57.0492 6.60487C54.6007 6.14164 48.667 5.85488 46.5935 6.07547ZM53.211 16.5532C59.4977 17.3252 65.0564 19.9943 69.6004 24.406C75.3136 29.9868 78.2473 36.869 78.3135 44.7659C78.3576 51.8687 75.6444 58.795 70.7916 63.9567L69.3137 65.5449L67.6152 62.942C64.5491 58.1995 62.1888 55.8613 58.9462 54.3392C57.0492 53.479 55.4169 53.1481 52.7919 53.1481C45.8215 53.1481 40.5275 58.045 40.5054 64.5302C40.4834 67.486 41.2995 69.6036 43.1745 71.4786C43.7701 72.0742 44.123 72.5595 43.9465 72.5595C43.7701 72.5595 42.5568 72.2065 41.2554 71.7654C32.6526 68.8978 25.616 61.7067 23.0131 53.104C22.0205 49.8393 21.7117 47.435 21.844 43.663C21.9543 39.8689 22.4396 37.4866 23.8072 34.1337C28.5718 22.4649 40.9466 15.0532 53.211 16.5532ZM54.1375 64.4199C54.9978 64.839 55.8581 65.4787 56.5198 66.2067C57.6889 67.5081 60.005 71.258 59.7624 71.4786C59.4756 71.7654 56.6522 72.5374 54.711 72.8903C53.6302 73.0668 51.6228 73.2212 50.2111 73.2212H47.6303L46.7479 72.3168C45.645 71.236 45.2921 70.2654 45.4244 68.589C45.7112 64.464 49.9685 62.4347 54.1375 64.4199Z" fill="#234E52"/>
<path d="M53.9609 21.0371C58.7581 22.1111 68.9538 26.8796 71.3595 37.3617" stroke="#234E52" stroke-width="1.07398"/>
</svg>
